<svg width="454" height="115" viewBox="0 0 454 115" fill="none" xmlns="http://www.w3.org/2000/svg">
<path d="M7 107.5L20.5 1H53L43.9271 83H76L73 107.5H7Z" fill="#45CAFF" stroke="black"/>
<path d="M1.5 112L15 5.5H47.5L38.4271 87.5H70.5L67.5 112H1.5Z" fill="#FF1B6B" stroke="black"/>
<path d="M171 18.3122L167 15V108.688H91V112H171V18.3122Z" fill="black" stroke="black"/>
<path d="M152 1H86V108.679H167M152 1L167 14.4818M152 1V14.4818M167 108.679H91V112H171V18.0769L167 14.4818M167 108.679V14.4818" stroke="black"/>
<path d="M152 14H166" stroke="black"/>
<rect x="106" y="28" width="28" height="18" fill="black"/>
<ellipse cx="106.5" cy="37" rx="9.5" ry="9" fill="black"/>
<ellipse cx="132.5" cy="37" rx="9.5" ry="9" fill="black"/>
<rect x="106" y="50" width="18" height="18" fill="black"/>
<ellipse cx="106.5" cy="59" rx="9.5" ry="9" fill="black"/>
<ellipse cx="124.5" cy="59" rx="9.5" ry="9" fill="black"/>
<rect x="106" y="73" width="41" height="18" fill="black"/>
<ellipse cx="106.5" cy="82" rx="9.5" ry="9" fill="black"/>
<ellipse cx="147.5" cy="82" rx="9.5" ry="9" fill="black"/>
<path d="M259.5 1H224L188 108L221 107.995L225 93.9955L237 93.9412V107.941L269 107L259.5 1Z" fill="#45CAFF" stroke="black"/>
<path d="M252.5 3H217L181 110L214 109.995L218 95.9955L230 95.9412V109.941L262 109L252.5 3Z" fill="#FF1B6B" stroke="black"/>
<path d="M224 73L232 43V73H224Z" fill="#45CAFF" stroke="black"/>
<path d="M360.55 36.784L335.55 37.784C334.35 37.784 331.55 33.4507 331.05 31.784V25.784C330.217 25.9507 327.35 26.384 326.55 26.784C325.55 27.284 324.55 28.284 325.55 33.284C326.086 35.9626 326.502 38.1181 326.619 38.8494C334.804 46.6949 350.455 60.5874 352.05 61.784C353.65 62.984 354.717 67.6174 355.05 69.784V82.784L354.05 86.784L352.05 91.284L350.05 94.784L348.05 98.284L345.55 101.284L342.05 103.784L338.55 105.784L334.05 108.284L328.55 110.284L325.55 110.784H320.05H314.55H311.05L306.55 110.284L301.55 109.284L298.05 108.284L295.05 106.784L291.05 103.784C290.717 103.117 290.05 101.784 288.55 100.284C287.05 98.784 286.55 94.284 285.55 93.284C284.75 92.484 285.884 80.6174 286.55 74.784H319.05V82.784C322.25 88.384 325.384 85.1174 326.55 82.784C326.384 80.9507 325.95 76.784 325.55 74.784C325.15 72.784 323.05 72.284 322.05 72.284C320.05 72.284 315.85 71.284 315.05 71.284C314.05 71.284 309.55 67.275 303.05 60.775C296.55 54.275 302.55 60.284 300.05 57.784C297.55 55.284 294.05 49.784 293.05 47.784C292.25 46.184 291.217 40.6174 291.05 37.784C290.884 31.9507 292.75 18.484 301.55 11.284C312.55 2.28402 311.55 4.28402 332.55 1.28402C349.35 -1.11598 358.217 12.284 360.55 19.284V36.784Z" fill="#45CAFF" stroke="black"/>
<path d="M353.275 38.5L328.275 39.5C327.075 39.5 324.275 35.1667 323.775 33.5V27.5C322.942 27.6667 320.075 28.1 319.275 28.5C318.275 29 317.275 30 318.275 35C318.811 37.6786 319.227 39.834 319.343 40.5654C327.529 48.4108 343.18 62.3033 344.775 63.5C346.375 64.7 347.442 69.3333 347.775 71.5V84.5L346.775 88.5L344.775 93L342.775 96.5L340.775 100L338.275 103L334.775 105.5L331.275 107.5L326.775 110L321.275 112L318.275 112.5H312.775H307.275H303.775L299.275 112L294.275 111L290.775 110L287.775 108.5L283.775 105.5C283.442 104.833 282.775 103.5 281.275 102C279.775 100.5 279.275 96 278.275 95C277.475 94.2 278.608 82.3333 279.275 76.5H311.775V84.5C314.975 90.1 318.108 86.8333 319.275 84.5C319.108 82.6667 318.675 78.5 318.275 76.5C317.875 74.5 315.775 74 314.775 74C312.775 74 308.575 73 307.775 73C306.775 73 302.275 68.991 295.775 62.491C289.275 55.991 295.275 62 292.775 59.5C290.275 57 286.775 51.5 285.775 49.5C284.975 47.9 283.942 42.3333 283.775 39.5C283.608 33.6667 285.475 20.2 294.275 13C305.275 3.99999 304.275 5.99999 325.275 2.99999C342.075 0.59999 350.942 14 353.275 21V38.5Z" fill="#FF1B6B" stroke="black"/>
<path d="M452.538 1L379.038 2L375.269 26.5H403.346L394.769 110H419.256L429.038 26.5H449.821L452.538 1Z" fill="#45CAFF" stroke="black"/>
<path d="M446.269 5L372.769 6L369 30.5H397.077L388.5 114H412.987L422.769 30.5H443.552L446.269 5Z" fill="#FF1B6B" stroke="black"/>
</svg>
